<?xml version="1.0" encoding="UTF-8"?>
<svg id="Calque_1" data-name="Calque 1" xmlns="http://www.w3.org/2000/svg" viewBox="0 0 1997.14 1142.23">
  <defs>
    <style>
      .cls-1 {
        font-family: Helvetica-Condensed-Light, Helvetica;
        font-size: 72px;
      }

      .cls-1, .cls-2 {
        fill: #1d1d1b;
      }

      .cls-3 {
        fill: #e02733;
      }
    </style>
  </defs>
  <path class="cls-2" d="M7.78,972V0H303.27c172.37,0,307.15,55.73,307.15,251.42,0,85.54-31.1,162-110.16,204.77v2.59c103.68,59.62,125.71,111.46,125.71,231.99,0,196.99-111.46,281.23-296.79,281.23H7.78ZM235.87,382.32c99.79-6.48,146.45,0,146.45-115.34,0-95.9-66.1-92.02-146.45-92.02v207.36Zm0,414.72c114.05-2.59,162,5.18,162-125.71,0-112.75-64.8-110.16-162-114.05v239.76Z"/>
  <path class="cls-3" d="M702.43,351.22v-50.54C702.43,108.86,804.82,0,1000.51,0c174.96,0,281.23,86.83,281.23,266.98,0,121.82-38.88,191.81-121.82,278.64l-84.24,81.65c-34.99,33.7-116.64,115.34-128.3,169.78h335.67v174.96H701.14v-32.4c0-160.71,99.79-299.38,203.47-413.43l98.5-103.68c46.66-51.84,62.21-93.31,62.21-164.59,0-49.25-22.03-101.09-81.65-95.9-68.69,3.89-75.17,93.31-75.17,142.56v46.66h-206.06Z"/>
  <path class="cls-2" d="M1378.94,972V0h247.54c82.94,0,182.74,2.59,256.61,45.36,88.13,51.84,102.38,146.45,102.38,239.76v431.57c-1.3,97.2-31.1,168.48-97.2,209.95-59.62,38.88-132.19,45.36-202.18,45.36h-307.15Zm228.1-174.96c152.93,10.37,154.22-51.84,150.34-181.44V298.08c-1.3-114.05-38.88-120.53-150.34-123.12V797.04Z"/>
  <text class="cls-1" transform="translate(0 1072.08) scale(2.5 1)"><tspan x="0" y="0">BAMBA</tspan></text>
  <text class="cls-1" transform="translate(696.6 1071.78) scale(1.75 1)"><tspan x="0" y="0">DEVELOPER</tspan></text>
  <text class="cls-1" transform="translate(1378.94 1072.08) scale(2 1)"><tspan x="0" y="0">DESIGNER</tspan></text>
</svg>